<?xml version="1.0" encoding="utf-8"?>
<!-- Generator: Adobe Illustrator 16.0.0, SVG Export Plug-In . SVG Version: 6.00 Build 0)  -->
<!DOCTYPE svg PUBLIC "-//W3C//DTD SVG 1.1//EN" "http://www.w3.org/Graphics/SVG/1.1/DTD/svg11.dtd">
<svg version="1.1" id="Layer_1" xmlns="http://www.w3.org/2000/svg" xmlns:xlink="http://www.w3.org/1999/xlink" x="0px" y="0px"
	 width="400px" height="400px" viewBox="0 0 400 400" enable-background="new 0 0 400 400" xml:space="preserve">
<path fill-rule="evenodd" clip-rule="evenodd" fill="#692045" d="M301.647,362.801c0.806,0.752,1.213,1.546,1.213,2.374
	c0,4.04-10.156,7.331-22.686,7.331c-12.515,0-22.726-3.291-22.726-7.331c0-6.495,20.013-7.911,24.926-7.497
	c5.478,0.418,10.329,1.167,15.456,2.998v-3.455c-2.481-0.665-5.592-1.288-8.124-1.582c-10.965-0.958-25.745-0.958-35.38,4.828
	c-0.294,0.129-0.642,0.294-1.037,0.544c-4.966,2.997-4.389,5.791-2.944,8.204c1.102,1.83,5.824,4.08,8.19,5.126v0.036
	c0.064,0,0.178,0.045,0.23,0.085c0.69,0.294,1.099,0.458,1.099,0.458v-0.084c10.047,3.541,19.387,3.082,29.727,2.373
	c12.117-1.496,20.947-5.785,20.947-10.786c0-3.787-5.31-6.66-8.892-8.037C301.647,359.678,301.647,361.345,301.647,362.801
	L301.647,362.801L301.647,362.801z M151.369,217.626v10.663c1.792-0.129,3.579-0.209,5.484-0.209c1.67,0,3.348,0.04,5.022,0.165
	l0.282-11.118L151.369,217.626L151.369,217.626L151.369,217.626z M149.29,226.579v-8.783c-2.195,0.958-13.276,6.533-13.211,12.533
	c-1.33,8.913,10.787,15.117,13.91,15.741c12.233,2.164,54.881,12.244,57.183,24.988c3.008,22.155-28.968,34.648-50.608,34.732
	l-1.616,12.615c0,0,6.928,9.955,29.487,15.535c14.024,2.08,22.394,1.503,27.65,0.255c5.658-1.587,13.667-5.212,17.416-9.247
	c0.704-1.706,1.166-3.337,1.563-4.628c-0.283-9.741-10.097-26.194-18.812-40.061c1.907-6.788,1.218-13.496-1.266-17.656
	c-3.121-4.458-4.272-6.539-14.37-11.661c-14.779-7.497-42.245-11.91-48.19-16.494C146.117,232.245,146.468,227.408,149.29,226.579
	L149.29,226.579L149.29,226.579z M230.947,171.564c2.369,1.919,4.34,3.752,6.067,5.832c14.305,2.874,27.063,6.123,38.029,8.914
	c-0.231-20.241-4.669-40.812-17.428-60.345L230.947,171.564L230.947,171.564L230.947,171.564z M228.121,327.612
	c-3.915,3.497-10.968,6.16-16.264,7.746l0,0c-34.979,6.329-58.12-14.244-58.696-16.449c-0.583-2.084,1.268-11.331,1.612-12.993
	c-1.036-0.044-2.368,0-3.404-0.044c-0.113,1.167-1.847,12.159-1.847,13.247c5.481,6.703,7.618,8.658,20.083,14.154
	c11.657,4.211,28.969,6.788,42.814,3.626c0.063,0,2.021-0.624,0.244-0.04c6.512-2,8.945-3.336,10.736-4.668
	C225.421,330.899,228.234,327.902,228.121,327.612L228.121,327.612L228.121,327.612z M289.066,354.392
	c2.663,0.289,5.197,0.748,7.564,1.291l1.102-0.588v0.045h-0.066v-21.032h-0.062v-0.08h-18.979L289.066,354.392L289.066,354.392
	L289.066,354.392z M304.653,358.262c2.136,0.959,3.978,2.04,5.425,3.251l3.863-3.251H304.653L304.653,358.262L304.653,358.262z
	 M312.612,364.512c0.461,0.872,0.743,1.83,0.743,2.788c0,6.787-12.579,12.409-28.793,13.286l-12.693,6.907h-20.781l0.757,7.377
	l-5.081,6.12l-39.13-0.04l-2.188-2.792l-39.303-0.169l-2.359-5.747l-21.01-0.499L129.956,387l-0.455-6.25l1.038-6.867l-26.085-0.046
	l-5.713-7.035l-1.625-1.751v-7.078l4.336-8.583l-15.872-0.375c-3.404,3.253-10.793,5.916-25.222,5.956
	c-24.408-0.499-28.509-9.368-25.566-15.362c2.195-3.128,9.751-4.124,11.312-4.624v-108.53l14.888-13.824l3.007,0.623l14.881,13.825
	v87.751l4.095,0.04c-2.302-3.626-4.49-7.371-6.513-11.207l-12.239,9.082l-0.173,0.081l1.217,1.875l9.808,0.084v-85.831
	l-13.736-12.868l-12.175,10.659V334.65c7.734-0.623,15.06-0.42,22.68,0.289l-1.331-5.621l13.966-10.868l-5.599-0.125
	c0-0.04,0,15.871,0,17.696c-1.036-0.124-2.712-0.333-3.806-0.414v-17.366l-18.817-0.374l-0.972-1.876l0,0l-0.46-0.997l-3.762-7.331
	l0.179,0.085l-0.756-1.587l2.713-6.45l15.297-13.705c-0.288-0.703-0.519-1.456-0.812-2.209l-25.849-1.162l-1.733-2.414l-0.519,0.04
	l-2.432-9.038l4.338-5.081l18.004-13.074c-0.461-2.832-0.87-5.706-1.273-8.623l-15.463-6.619l-0.409-0.04l-7.155-1.92v-8.244
	l6.462-3.625l6.526-2.245l8.944-7.999c0-0.959,0.116-2.37,0.173-3.333l-19.852,1.377c0,0,6.46-3.751,16.851-8.997l-12.462-4.954
	l-5.138-3.748l1.382-10.206l7.621-1.166l15.637-0.165c0.754-3.332,1.618-6.623,2.597-9.871v25.365
	c1.216-0.586,2.425-1.168,3.634-1.751v-15.993l12.7-1.334v11.621c1.209-0.543,2.426-1.04,3.691-1.583v-10.411l11.082-1.126v7.082
	c1.215-0.501,2.425-0.96,3.699-1.417v-6.083l14.766-1.499v2.457c1.214-0.372,2.431-0.749,3.699-1.123v-1.708l9.929-1.082
	c7.498-1.916,14.997-3.375,22.213-4.25v-11.327c-1.79-0.167-4.274-0.666-4.792-2.04c-1.156-2.833-0.797-5.082,1.913-7.04
	c-0.522-1.538-3.006-2.703-5.143-3.329v-11.87l13.678-2.206l4.504,9.161l4.786,0.042l-4.503-9.788l3.64-0.54l15.694,33.315
	c6.117,0.541,12.182,0.292,18.184,1.456l2.022-2.663c-5.369-0.459-10.679-1.084-16.048-0.708l-15.123-32.15l4.158-0.708l2.884,6.457
	l43.577-6.706l5.08-8.624l13.27-2.454l-29.956,54.265c1.795,0.247,3.635,0.541,5.491,0.788l30.007-55.971l6.181-1.041
	c1.61,3.621,1.266,6.247-1.396,10.412l-27.357,47.847c1.563,0.252,3.186,0.543,4.734,0.835l28.458-49.6
	c2.252-3.62,2.021-6.828-0.231-10.202l55.804-9.162l15.639,6.248l23.146-3.958l-24.069-9.871l-182.188,31.151v-11.285l5.771-1.081
	v-7.663l-11.313-2.667v-3.292l11.313,2.873V75.575l-11.313-4.083V68.16l11.313,4.208V47.464l2.481-0.917V44.09l-13.794-4.997v-3.29
	l13.794,5.121V15.396l-13.973-5.916v25.988l-18.463,4.83V10.815l18.463-6.125l48.535,20.993v24.779l3.238,1.292V35.135l34.971-7.995
	l29.841,12.619v36.606c-0.459,8.619-12.182,11.993-26.091,14.786v12.451l27.983-4.915V17.935l21.241-5.539l20.143,8.289V6.858
	l19.795-4.955v0.458l25.337,9.412v80.792l13.908,6.122v13.202l-29.266,4.412l33.654,13.287l-0.345,10.579l-2.088,3.998
	l-17.886,12.367l-0.231,1.294l2.367-0.169l26.257,8.541v15.906l-24.352,7.29v10.035l24.876,6.829v15.7l-24.006,3.212l0.116,11.446
	l21.637,11.497l-0.688,15.162l-24.249-0.962l-3.404,9.037l18.873,15.616l-0.28,12.579l-3.353,2.204l-25.271-1.536l0.052,4.329
	l17.194,18.993v3.994l-6.063,10.494h-27.806l9.404,18.739v3.002L312.612,364.512L312.612,364.512L312.612,364.512z M276.656,380.626
	c-6.691-0.294-12.811-1.417-17.712-3.041l0.399,2.747l-7.896,3.666h19.206L276.656,380.626L276.656,380.626L276.656,380.626z
	 M252.254,360.053c1.957-1.208,4.377-2.29,7.203-3.208V220.794l4.273-5.707h-0.052l3.456-4.419h-0.05l10.273-13.571l5.937-0.833
	l18.353,21.657v71.961h0.114v0.04l20.664,9.666h0.347v2.744h-21.011v0.084h-0.114v27.236h-3.981V219.541l-16.851-19.992
	l-8.42,10.581l0,0l-4.568,5.706l0,0l-3.917,4.958l-0.807,123.228v4.246v2.623l-3.697,1.251c-1.79,2.998-5.604,2.708-8.369,5.707
	L252.254,360.053L252.254,360.053L252.254,360.053z M283.757,363.135h-21.755c1.96-2.414,9.061-4.25,17.481-4.25
	c9.931,0,18.005,2.504,18.005,5.627c0,3.081-8.074,5.581-18.005,5.581c-9.469,0-17.25-2.295-17.939-5.168h22.213V363.135
	L283.757,363.135L283.757,363.135z M301.597,355.015h0.051v-20.907h0.114v-0.08h1.395l0,0l0.805,0.668l9.395,20.319H301.597
	L301.597,355.015L301.597,355.015L301.597,355.015z M297.604,330.776v-0.959l-12.4-9.536c-2.546,3.626-5.197,7.162-8.024,10.495
	H297.604L297.604,330.776L297.604,330.776z M271.229,214.833l3.583-4.493l2.711-0.17c0.234,1.043,0.348,2.958,0.295,4.289
	L271.229,214.833L271.229,214.833L271.229,214.833z M264.538,210.798l-3.751,4.539l-47.663,2.459
	c-0.923,4.538-2.546,9.701-4.621,13.073l40.744,81.587c0.062,0.079,0.062,0.124,0.062,0.204c-0.344,0.459-0.753,0.957-1.1,1.456
	c-1.214,0.499-2.892,0.624-3.286-0.205l-39.707-78.379c-1.851,2.125-4.324,6.333-7.275,7.749c-0.805-1.041-3.921-4.168-5.022-4.831
	c9.353-9.372,14.837-25.322,10.447-38.315l8.887-0.585c1.153,4.831,2.138,8.541,1.218,13.912L264.538,210.798L264.538,210.798
	L264.538,210.798z M62.375,337.608c-4.606-0.045-18.171-0.169-19.559,3.122c-1.439,3.331,5.714,6.869,18.523,6.788
	c5.252,0,14.944-0.335,17.773-4.498c1.562-2.624-3.979-3.996-6.462-4.455l0.059,0.041C68.958,337.981,64.684,337.648,62.375,337.608
	L62.375,337.608L62.375,337.608z M81.542,348.935h0.108c-0.454,0.249-0.921,0.455-1.439,0.665c-2.195,0.955-4.21,1.331-4.21,1.331
	l0,0c-4.044,0.956-9.066,1.421-15.528,1.421c-18.752,0.08-25.392-8.04-22.393-12.29c3.058-4.244,18.99-4.08,25.739-3.994
	c2.022,0.04,5.426,0.208,8.433,0.577v0.046c5.247,0.584,11.888,1.541,13.206,5.166c0.18,0.331,0.294,0.664,0.294,0.999
	c0,0.328-0.058,0.788-0.172,1.206C85.176,346.312,83.442,347.892,81.542,348.935L81.542,348.935L81.542,348.935z M45.874,341.02
	h17.6v1.208H46.162c1.382,1.71,6.872,3.291,15.118,3.291c6.122-0.04,11.484-1.122,13.908-2.04l-0.114-3.082
	c-3.461-1.208-10.5-2.04-12.867-1.75c-3.863-0.04-15.06-0.126-16.276,2.124C45.932,340.855,45.874,340.935,45.874,341.02
	L45.874,341.02L45.874,341.02z M87.543,346.018c0.231-1.122,0.397-2.619,0.397-3.666c-0.051-1.123-0.973-2.29-1.957-3.122
	l10.85-5.785c2.647,3.036,5.426,5.909,8.254,8.657l-1.966,3.916H87.543L87.543,346.018L87.543,346.018z M66.417,280.261
	l-14.542-0.165l-5.023-0.293l3.06-0.165l14.664-5.163C65.151,276.431,65.785,278.346,66.417,280.261L66.417,280.261L66.417,280.261z
	 M57.934,241.527l-5.943-1.996l5.777,0.584C57.819,240.569,57.877,241.028,57.934,241.527L57.934,241.527L57.934,241.527z
	 M131.228,370.214l-21.06,0.123l2.648-3.327l7.734-12.12c3.923,2.749,7.91,5.246,12.062,7.493L131.228,370.214L131.228,370.214
	L131.228,370.214z M163.783,388.497l-19.803-0.335l3.065-5.286l2.763-12.58c4.101,1.382,9.7,2.709,13.975,3.587V388.497
	L163.783,388.497L163.783,388.497z M178.498,394.537l23.891-0.086l-1.562-1.954l-1.728-17.162
	c-4.333,0.543-8.713,0.838-13.219,0.838c-0.92,0-1.906-0.046-2.827-0.046l-2.136,14.574L178.498,394.537L178.498,394.537
	L178.498,394.537z M220.687,373.005h16.213l-3.931-7.496c-3.979,1.875-8.074,3.501-12.233,4.916L220.687,373.005L220.687,373.005
	L220.687,373.005z M238.739,376.501h-18.116l0.395,15.282l-1.433,5.417h22.904l4.391-4.08l-2.188-9.702l-4.39-3.874L238.739,376.501
	L238.739,376.501L238.739,376.501z M302.223,305.039h19.909l16.916,18.738h-24.183l-4.619-6.618L302.223,305.039L302.223,305.039
	L302.223,305.039z M314.865,327.278h24.76l-4.849,8.369l-24.237-0.249L314.865,327.278L314.865,327.278L314.865,327.278z
	 M335.582,261.937l-3.749,8.663l-23.086-1.582l0,0c1.152-4.373,2.188-8.788,3.007-13.331l23.48,6.209L335.582,261.937
	L335.582,261.937L335.582,261.937z M311.921,271.972l21.754,1.71l17.03,12.868l-23.264-1.791L311.921,271.972L311.921,271.972
	L311.921,271.972z M327.507,288.047l24.003,1.292l-0.688,9.62l-24.466-1.58L327.507,288.047L327.507,288.047L327.507,288.047z
	 M339.689,225.082l0.112,11.411l-25.398-1.874c0.295-4,0.396-8.08,0.396-12.165c0-0.623,0-1.246,0-1.825L339.689,225.082
	L339.689,225.082L339.689,225.082z M319.203,237.657l21.803,1.54l15.701,7.831l-21.189-2.04L319.203,237.657L319.203,237.657
	L319.203,237.657z M338.357,248.525l23.02,1.461l-0.344,10.453l-24.007-1.96L338.357,248.525L338.357,248.525L338.357,248.525z
	 M63.935,115.346l-1.611,0.124l-5.886,9.996l7.498,6.536V115.346L63.935,115.346L63.935,115.346z M63.935,150.743l-14.484-3.333
	l-4.734,11.373l19.218,13.241V150.743L63.935,150.743L63.935,150.743z M82.975,208.589c-0.396,4.832-0.28,8.744-0.28,13.865
	c0,70.301,43.915,127.647,97.704,127.647c18.816,0,36.474-7.081,51.483-19.325c-0.064,0.04-0.128,0.04-0.178,0.04
	c1.036-0.874,2.188-1.832,3.122-2.661c0.051,0,0.103,0,0.103,0.04c0.753-0.708,1.51-1.376,2.252-2.084
	c0.178-0.124,0.243-0.209,0.243-0.209l0,0c0.563-0.538,1.151-1.078,1.729-1.666c-1.039,0.419-2.138,0.793-3.176,1.166
	c-0.23,0.21-0.409,0.42-0.64,0.629c-0.18,0.08-0.281,0.165-0.408,0.29c-0.516,0.788-9.752,7.746-9.752,7.746s0.065,0,0.181,0.04
	c-8.946,5.914-21.992,11.535-38.093,10.953c-31.972-1.163-51.186-18.82-53.783-20.614c-2.546-1.79-0.985-3.084-0.985-3.084
	l10.276-16.987c-1.333-0.253-2.655-0.588-3.98-0.921c-1.503,2.209-8.433,12.702-9.642,14.289c-1.388,1.79-4.152,0.328-4.152,0.328
	s-3.008-2.952-3.814-4.243c-0.747-1.293,0.807-3.457,0.807-3.457l7.857-10.036c-1.216-0.543-2.431-1.086-3.583-1.71l-7.958,11.162
	c-18.826-24.573-27.538-57.677-27.538-86.121l48.534-2.414c1.741-1.376,5.835-4.084,7.274-4.623l-55.457,2.828v-11.532
	L82.975,208.589L82.975,208.589L82.975,208.589z M253.341,307.078c0.755-1.162,1.561-2.333,2.305-3.535l-30.121-60.471
	c3.977-6.204,6.702-13.077,7.854-20.159l-6.575,0.254c-1.561,6.04-4.272,12.075-7.679,17.696l32.949,65.632
	C252.305,306.874,252.766,307.039,253.341,307.078L253.341,307.078L253.341,307.078z M257.552,300.415
	c12.823-21.611,20.434-48.639,20.434-77.961c0-0.578-0.114-0.833-0.114-1.371l-33.411,1.416
	c-1.047,9.123-5.539,20.614-10.917,27.068L257.552,300.415L257.552,300.415L257.552,300.415z M173.59,25.35v20.947l5.944,2.29
	V27.722L173.59,25.35L173.59,25.35L173.59,25.35z M170.474,44.963V23.976l-6.412-2.791V42.05L170.474,44.963L170.474,44.963
	L170.474,44.963z M160.486,42.591l-0.115-22.656l-7.325-3.165v25.195l4.326,1.833L160.486,42.591L160.486,42.591L160.486,42.591z
	 M113.507,12.065l-14.766,4.913V45.13l14.766-3.873V12.065L113.507,12.065L113.507,12.065z M95.042,18.185L83.96,21.851v27.152
	l11.082-2.873V18.185L95.042,18.185L95.042,18.185z M80.269,23.1l-12.7,4.207v25.985l12.7-3.287V23.1L80.269,23.1L80.269,23.1z
	 M67.569,56.499v27.779l12.7-2.998V53.17L67.569,56.499L67.569,56.499L67.569,56.499z M67.569,87.443v28.276l12.7-2.164V84.442
	L67.569,87.443L67.569,87.443L67.569,87.443z M67.569,118.844v26.776l12.7-1.581v-27.361L67.569,118.844L67.569,118.844
	L67.569,118.844z M67.569,148.7v28.531l12.7-1.293v-28.819L67.569,148.7L67.569,148.7L67.569,148.7z M67.569,202.716v2.706
	l-6.864,0.503C60.705,205.925,63.244,204.718,67.569,202.716L67.569,202.716L67.569,202.716z M80.269,204.549v-7.452
	c1.158-0.499,2.426-1.002,3.691-1.544v8.744L80.269,204.549L80.269,204.549L80.269,204.549z M95.042,203.509V191.1
	c1.215-0.461,2.425-0.918,3.699-1.377v13.534L95.042,203.509L95.042,203.509L95.042,203.509z M113.507,202.175v-10.369l3.699,1.001
	v9.116L113.507,202.175L113.507,202.175L113.507,202.175z M113.507,187.391v-2.915c1.214-0.375,2.431-0.793,3.699-1.167v5.082
	L113.507,187.391L113.507,187.391L113.507,187.391z M135.669,200.636v-2.791l8.024,2.207L135.669,200.636L135.669,200.636
	L135.669,200.636z M135.669,193.344v-15.199c0.46-0.125,0.986-0.248,1.511-0.372l13.78,19.696L135.669,193.344L135.669,193.344
	L135.669,193.344z M135.669,170.192v-29.943l-18.463,2.292v29.566L135.669,170.192L135.669,170.192L135.669,170.192z
	 M135.669,137.167v-29.901l-18.463,3.125v29.067L135.669,137.167L135.669,137.167L135.669,137.167z M135.669,104.142V71.367
	l-18.463,4.33v31.569L135.669,104.142L135.669,104.142L135.669,104.142z M135.669,68.16V38.636l-18.463,4.87v29.028L135.669,68.16
	L135.669,68.16L135.669,68.16z M113.507,172.483v-29.485l-14.766,1.833v29.192L113.507,172.483L113.507,172.483L113.507,172.483z
	 M95.042,174.399v-29.113l-11.082,1.376v28.861L95.042,174.399L95.042,174.399L95.042,174.399z M113.507,139.915v-28.901
	l-14.766,2.542v28.192L113.507,139.915L113.507,139.915L113.507,139.915z M95.042,142.207v-28.028l-11.082,1.873v27.529
	L95.042,142.207L95.042,142.207L95.042,142.207z M113.507,107.932V76.572l-14.766,3.499v30.36L113.507,107.932L113.507,107.932
	L113.507,107.932z M95.042,111.054V80.946L83.96,83.569v29.36L95.042,111.054L95.042,111.054L95.042,111.054z M113.507,73.407
	V44.464l-14.766,3.873v28.569L113.507,73.407L113.507,73.407L113.507,73.407z M95.042,77.779V49.295L83.96,52.21v28.195
	L95.042,77.779L95.042,77.779L95.042,77.779z M275.568,16.519L295.53,25.1v16.2L275.568,16.519L275.568,16.519L275.568,16.519z
	 M274.287,94.689l28.113-4.955l-28.113-33.067V94.689L274.287,94.689L274.287,94.689z M315.325,87.692l8.944-1.789l11.541,4.664
	V14.853l-20.485-7.451V87.692L315.325,87.692L315.325,87.692z M187.442,54.958l-23.897-9.119v68.799l23.897-4.207V54.958
	L187.442,54.958L187.442,54.958z M204.985,107.391l17.428-3.123V91.732l-17.492-7.998L204.985,107.391L204.985,107.391
	L204.985,107.391z M209.375,80.654l14.944,6.789c9.059-1.625,20.027-3.582,23.827-10.455V41.924l-18.235-7.08v39.065
	C229.565,76.781,220.16,79.113,209.375,80.654L209.375,80.654L209.375,80.654z M204.525,47.464l7.445-2.124v20.571l-7.445,2.083
	V47.464L204.525,47.464L204.525,47.464z M320.636,218.998l19.616,3.211l18.131-1.336l-19.516-3.79L320.636,218.998L320.636,218.998
	L320.636,218.998z M340.839,213.253l22.905,5.331l0.231-9.956l-22.509-5.952L340.839,213.253L340.839,213.253L340.839,213.253z
	 M338.114,198.513v-8.706l-23.083-6.207c-0.333,0.125-0.741,0.29-1.09,0.459c0.41,4.748,0.462,9.496,0.168,14.202l0.69,0.251
	H338.114L338.114,198.513L338.114,198.513z M319.713,181.104l19.977,5.91l22.214-6.244l-23.84-6.958
	C333.33,176.229,325.716,178.688,319.713,181.104L319.713,181.104L319.713,181.104z M339.739,170.44l23.891,7.373v-9.287
	l-23.033-7.123L339.739,170.44L339.739,170.44L339.739,170.44z M329.758,120.924l25.616,10.369v6.791l-25.449-10.12L329.758,120.924
	L329.758,120.924L329.758,120.924z M354.225,141.332l-18.464,12.493l-23.38-8.993l17.607-12.748L354.225,141.332L354.225,141.332
	L354.225,141.332z M309.094,148.164l23.952,8.826l-0.126,1.251l-7.204,0.372l-16.327,2.502
	C309.72,156.78,309.615,152.491,309.094,148.164L309.094,148.164L309.094,148.164z M136.079,294.376c0,0,4.901-1.082,2.83-1.911
	c-2.087-0.833-6.586-0.833-8.369-1.666c-1.793-0.877-2.311-1.915,0.229-2.128c2.598-0.246,3.232-0.664,3.455-2.375
	c0.294-1.705,0-8.08,0-8.08s-1.785-1.202-3.684-2.079c0.164,2.538,0.28,3.914-0.065,3.042c-0.167,0.249-1.209-1.791-2.131-3.876
	c-0.172-0.04-0.404-0.084-0.582-0.084c-0.115,0-0.283-0.041-0.345-0.041c-1.383-0.164-2.712-0.328-3.98-0.499
	c0.641,3.915,1.268,6.5,0.808,5.332c-0.231,0.335-1.843-3.207-2.944-5.665c-1.094-0.165-2.073-0.374-2.993-0.54
	c1.265,3.747,2.243,6.455,1.087,5.997c-0.349,0.418-2.598-4.371-3.572-6.54c-4.221-1.042-6.583-2.204-6.583-3.456
	c0-1.127,1.906-2.205,5.311-3.122c-0.116-1.082-0.239-2.165-0.239-2.749c0-1.251-0.229-4.04-0.229-4.04s1.79-2.747,2.604-4.454
	c0.748-1.709,3.576-0.418,0.748,2.33c-1.957,1.711-1.957,4.958-1.266,8.495c1.152-0.291,2.482-0.54,3.921-0.789
	c-0.059-0.544-0.059-0.998-0.059-1.332c0-1.251,0.75-2.544,0.75-2.544s0.807-4.244,1.554-5.955c0.756-1.705,8.255-5.122,2.597-0.205
	c-1.957,1.662-2.532,5.497-2.417,9.662c1.381-0.254,2.884-0.419,4.497-0.624c0-0.378,0-0.713,0-0.962
	c0-1.291,1.043-1.916,1.043-1.916s1.792-7.246,2.598-8.952c0.742-1.666,8.255-5.078,2.535-0.21
	c-2.13,1.875-2.879,6.664-3.057,11.706c3.351-0.335,6.984-0.628,10.849-0.792c1.728-5.707,5.835-8.914,9.699-13.617
	c-10.619-2.708-17.371-11.371-17.491-15.995c-16.392,6.244-27.295,18.783-27.295,33.193c0,20.527,22.854,37.312,50.961,37.312
	c17.717,0,53.435-11.95,46.341-31.397c-2.77,0.749-7.218,1.457-11.659,2.04c-1.329,1.96-4.735,7.039-5.079,6.619
	c-2.072,0.668,0.344-2.498,2.022-6.245c-2.482,0.29-5.137,0.504-7.966,0.708c0,0.04-0.057,0.085-0.057,0.125
	c-1.562,1.457-3.863,3.167-3.863,3.167s0.74,5.118-1.036,5.328c-1.857,0.208-2.604,1.296-2.604,1.296l-4.901,4.663
	c0,0-1.792,1.915-4.159,2.744c-2.311,0.876-4.101,4.503-4.101,4.503c27.357,2.329,39.424-18.868,38.898-19.746
	c0,0,3.115-0.623,0.231,3.211c-5.887,12.619-21.122,19.986-43.455,20.071c-4.557-0.085-6.521-0.125-6.405-0.753
	c-2.885,1.337-3.346-2.453-3.346-2.453l3.517-3.751c0,0,1.499-1.287,2.024-5.537c0.229-1.915,1.842-3.331,3.46-4.289
	c-0.403,0.124-0.749,0.209-1.093,0.249c-2.087,0.21-4.908,4.455-4.678,5.955c0.287,1.501-1.036,3.622-3.346,4.25
	c-2.308,0.663-2.827,3.202-2.827,3.202s-2.655,1.043-5.198,1.043c-1.728,0.044-20.025-7.537-13.331-8.329
	C127.826,290.505,136.079,294.376,136.079,294.376L136.079,294.376L136.079,294.376z M320.111,118.428v-4.165l-12.694-4.706
	l-11.772,4.58c2.546,4.583,4.274,9.081,5.31,13.993L320.111,118.428L320.111,118.428L320.111,118.428z M227.032,180.604
	c1.267,2.334,3.52,5.788,5.248,13.2l-6.579,0.458c-0.113-1.875-4.439-12.16-7.563-15.285L227.032,180.604L227.032,180.604
	L227.032,180.604z M243.296,192.932c-0.117-1.499-1.382-6.498-3.288-9.706c19.104,3.831,33.703,7.537,33.703,7.537L243.296,192.932
	L243.296,192.932L243.296,192.932z M203.539,183.185c2.253,2.374,5.022,5.454,7.218,12.117l-8.952,0.667
	c-1.272-3.497-2.935-7.456-5.534-9.496L203.539,183.185L203.539,183.185L203.539,183.185z M176.642,139.541l39.769-6.247
	l-15.24,27.071c-5.475-0.377-10.785-0.793-15.981-0.749L176.642,139.541L176.642,139.541L176.642,139.541z M151.307,147.994v-4.578
	h10.569v4.661C159.393,147.705,154.14,147.62,151.307,147.994L151.307,147.994L151.307,147.994z M167.992,152.366l1.215-0.833
	l7.845,17.743c-1.383-0.083-3.583-0.125-4.966-0.21l-5.369-12.2C167.698,155.825,169.322,153.743,167.992,152.366L167.992,152.366
	L167.992,152.366z M205.677,255.148c-2.598-5.372-6.643-9.452-12.062-13.911c-9.231-7.162-22.333-11.62-36.762-11.62
	c-2.713,0-5.317,0.168-7.908,0.459c-0.058,1.416,0.174,2.918,1.272,3.665C166.84,241.696,191.651,242.903,205.677,255.148
	L205.677,255.148L205.677,255.148z M134.46,226.664l-22.278,0.957c-1.093,6.08-0.115,17.99-0.115,17.99l-0.106,0.623
	c5.188-5.954,12.461-10.827,21.177-14.029C133.072,230.201,133.417,228.454,134.46,226.664L134.46,226.664L134.46,226.664z
	 M162.272,158.865c-0.282-0.125-0.627-0.208-0.919-0.334c-1.384-0.501-3.584-1.499-4.736-1.416
	c-0.922,0.082-3.519,0.958-5.016,1.292v11.205c1.79-0.17,3.583-0.334,5.361-0.417c1.677-0.127,3.409-0.169,5.144-0.209
	L162.272,158.865L162.272,158.865L162.272,158.865z M163.718,156.366c-2.188-0.375-5.253-2.002-7.332-1.833
	c-0.858,0.083-3.518,1.04-4.441,1.125c-0.92,0.04-4.273-0.167-4.85-1.583c-0.518-1.417-0.627-1.04,0.116-2.414
	c0.923-0.958,2.662-2.5,4.734-2.332c2.484-0.375,9.636-0.125,10.736,0.334c1.152,0.499,3.231,1.871,3.231,3.622
	C165.913,154.992,163.718,156.366,163.718,156.366L163.718,156.366L163.718,156.366z M154.018,159.446h-1.316v6.957h1.316V159.446
	L154.018,159.446L154.018,159.446z M154.018,167.318h-1.316v0.789h1.316V167.318L154.018,167.318L154.018,167.318z M150.793,187.057
	h3.98v-12.281c1.613-0.17,3.174-0.295,4.671-0.377c0.927-0.041,1.909-0.085,2.828-0.127l-0.282,12.955l-5.31,9.077L150.793,187.057
	L150.793,187.057L150.793,187.057z M149.579,175.439v9.831l-5.715-8.873C145.83,176.022,147.736,175.688,149.579,175.439
	L149.579,175.439L149.579,175.439z M151.83,176.396h-1.496v1.207h1.496V176.396L151.83,176.396L151.83,176.396z M151.83,181.604
	h-1.496v4.079h1.496V181.604L151.83,181.604L151.83,181.604z M163.949,217.043l-0.231,8.245c0,0,11.542-0.709,11.017-5.831
	c-0.511-5.332-5.764-8.619-12.11-8.579c-9.872,0-18.24-0.793-22.105-5.497l-11.197,1.128c-2.252,2.454-0.863,6.284,2.598,6.993
	c2.829,0.419,9.291,1.5,11.599,1.5c2.311,0,15.988,0.624,15.988,0.624C161.581,215.711,164.005,216.165,163.949,217.043
	L163.949,217.043L163.949,217.043z M141.556,204.506c3.814,2.96,8.252,4.707,13.679,4.707h7.038l0.178-6.203L141.556,204.506
	L141.556,204.506L141.556,204.506z M280.237,191.473L55.452,207.546c0,0,60.889-32.316,103.532-34.731
	C204.114,170.359,280.237,191.473,280.237,191.473L280.237,191.473L280.237,191.473z M188.767,175.357
	c3.518,0.541,10.267,3.997,10.965,4.997l-7.095,3.038c-4.101-3.038-10.39-5.953-16.685-7.162l1.158-1.749
	C180.917,174.688,184.844,174.98,188.767,175.357L188.767,175.357L188.767,175.357z M166.316,198.426l45.821-20.112
	c-1.267-0.212-2.482-0.376-3.748-0.541l-47.442,20.696l-0.229,0.375l-0.634,0.042L166.316,198.426L166.316,198.426L166.316,198.426z
	 M152.003,198.925l0.352,0.501l1.663-0.125l-14.881-21.945c1.036-0.208,2.017-0.459,3.06-0.667l14.483,22.442l-9.405,0.671
	l-43.749-11.871c1.094-0.376,2.193-0.789,3.344-1.165L152.003,198.925L152.003,198.925L152.003,198.925z M138.036,177.604
	c-0.056,0-0.113,0-0.113,0S137.98,177.604,138.036,177.604L138.036,177.604L138.036,177.604z M175.556,174.399l-16.508,24.526
	l-2.317,0.207l14.78-24.861C171.626,174.271,176.995,174.48,175.556,174.399L175.556,174.399L175.556,174.399z M292.355,192.432
	L43.737,209.881c0,0,66.775-36.315,113.808-38.772C207.524,168.319,292.355,192.432,292.355,192.432L292.355,192.432
	L292.355,192.432z M185.076,265.349v8.707c1.38-0.084,2.71-0.205,3.979-0.333c0.807-2.335,1.035-4.665-0.403-6.37
	c-0.75-0.713-1.094-1.336-1.209-1.835C186.688,265.478,185.88,265.397,185.076,265.349L185.076,265.349L185.076,265.349z
	 M180.455,274.391c0.116-2.294,0.173-7.626-0.576-9.412c-1.272-0.089-2.597-0.169-3.927-0.209c-0.75,1.166-1.037,2.249,0.115,2.788
	c2.309,1.082,1.043,4.912-0.807,5.54c-0.634,0.205-1.38,0.793-2.073,1.622C175.72,274.64,178.146,274.515,180.455,274.391
	L180.455,274.391L180.455,274.391z M167.417,254.15c-5.542,2.374-3.412-0.124-3.468,8.783c0.288,0,0.522,0,0.805,0
	c0.46-0.747,0.985-1.332,0.985-1.332s4.39-1.287,5.132-5.122c0.113-0.583,0.41-0.998,0.697-1.246
	C170.358,254.813,168.626,254.524,167.417,254.15L167.417,254.15L167.417,254.15z M178.317,257.687
	c0.347,1.252,0.691,3.003,0.058,3.915c-0.345,0.46-0.863,1.083-1.439,1.791c3.981,0.249,7.73,0.543,11.082,0.921
	c0.281-0.128,0.576-0.087,0.865,0.081c2.826,0.29,6.288,0.829,8.539,1.208C194.711,262.729,186.8,259.855,178.317,257.687
	L178.317,257.687L178.317,257.687z M202.905,271.388c-0.23-1.497-1.906-3.371-3.289-4.29c-2.655-0.623-5.482-0.872-8.144-1.162l0,0
	c-0.513-0.04-1.087-0.129-1.669-0.169c0.583,1.168,1.323,2.25,1.906,3.372c0.116,1.007,0.231,1.835,0.231,1.835v2.414
	C196.552,272.849,200.66,272.141,202.905,271.388L202.905,271.388L202.905,271.388z M130.424,273.891
	c-0.181-2.458-0.293-5.456-0.293-8.413c3.177-0.295,6.691-0.544,10.447-0.708c-0.633,2.125-1.325,4.498-1.963,6.618
	c-1.039,3.626-5.657,2.335-6.925,2.335C131.395,273.723,130.935,273.806,130.424,273.891L130.424,273.891L130.424,273.891z
	 M126.955,265.767c-0.114,1.421-0.171,2.873-0.171,2.873l-0.29,2.543c0,0,0.461,1.123,1.101,2.499
	c-1.562-0.125-3.006-0.294-4.39-0.459c-0.287-2.164-0.574-4.583-0.689-6.956C123.896,266.101,125.342,265.936,126.955,265.767
	L126.955,265.767L126.955,265.767z M120.206,266.6c0.173,1.457,0.344,2.873,0.344,2.873l-0.287,2.543c0,0,0.116,0.335,0.344,0.833
	c-0.978-0.169-1.957-0.334-2.826-0.498c-0.526-1.587-1.037-3.333-1.383-4.998C117.488,267.098,118.76,266.854,120.206,266.6
	L120.206,266.6L120.206,266.6z M114.666,267.767c0.113,0.873,0.171,1.501,0.171,1.501l0.46,2.494
	c-2.417-0.619-3.749-1.327-3.749-2.079C111.548,269.018,112.648,268.395,114.666,267.767L114.666,267.767L114.666,267.767z
	 M175.375,276.301c-1.036,0.045-2.073,0.09-3.174,0.13c-0.633,1.456-1.036,3.331-0.805,5.62c0.518,5.078-5.139,6.164-6.988,6.58
	c-1.785,0.418-5.132,0.208-5.657,2.333c-0.518,2.125-2.072,3.831-3.338,4.245c-0.985,0.333-2.024,1.795-3.814,3.251
	c2.656-1.167,6.576-2.333,7.152-2.793c1.274-1.081,3.641-3.83,3.641-3.83s1.267-1.287,4.095-1.915
	c2.833-0.668,4.908-3.831,4.908-3.831s-0.231-2.792,1.554-4.249c1.784-1.496,2.309-3.83,2.309-3.83S175.202,277.054,175.375,276.301
	L175.375,276.301L175.375,276.301z M161.928,276.679c-0.692,0.045-1.383,0.045-2.137,0.045c-0.283,0.29-0.514,0.415-0.514,0.415
	s-1.043,2.992-1.043,4.244c0,0.713-0.804,1.626-1.848,2.335c1.33-0.584,2.366-0.834,2.366-0.834s3.872,1.291,3.123-3.621
	C161.697,278.346,161.761,277.472,161.928,276.679L161.928,276.679L161.928,276.679z M164.237,264.43
	c-0.059,0.794,0.235,1.587,1.503,2.09c3.347,1.247-0.287,4.868-0.287,4.868s-1.908,1.292-3.002,3.626c-0.409,0-0.805,0-1.214,0
	c1.158-1.876,2.482-5.123,2.656-10.619C164.005,264.395,164.127,264.395,164.237,264.43L164.237,264.43z"/>
</svg>
